# xmcd
#
# Track frame offsets:
#	180
#	18119
#	33571
#	48064
#	64255
#	79500
#	96574
#	114671
#	135401
#	154997
#	170818
#	186697
#
# Disc length: 2642 seconds
#
# Revision: 2
# Processed by: cddbd v1.5.2PL0 Copyright (c) Steve Scherf et al.
# Submitted via: EZCDAudioConverter 1.3.4.1
#
DISCID=a30a500c
DTITLE=Various Artist - Piosenki Radio Kierowcow
DYEAR=1900
DGENRE=polish
TTITLE0=Alina Pszczolkowska - Spraw nam niespodzianke
TTITLE1=Wojciech Kucharski - Glupio mi oddac go na zlam
TTITLE2=Katarzyna Szubartowska - Maly motel
TTITLE3=Rafal Gonder - Odmierzam asfaltem godziny
TTITLE4=Roman Karczewski - Daleka droga
TTITLE5=Alina Pszczolkowska - Swiat w ramionach
TTITLE6=Iwona Niedzielska - Dosyc pytan,dosyc lez
TTITLE7=Gang Marcela - Nie tylko kasa
TTITLE8=Alicja Boncol - Mam kilometrow paranoje
TTITLE9=Grzegorz Bukala - W droze
TTITLE10=Joanna Kozak - Siodma basn
TTITLE11=Syrbacy - Ja jestem odlotowym kierowca zawodowym
EXTD=
EXTT0=
EXTT1=
EXTT2=
EXTT3=
EXTT4=
EXTT5=
EXTT6=
EXTT7=
EXTT8=
EXTT9=
EXTT10=
EXTT11=
PLAYORDER=
